<svg width="32" height="32" viewBox="0 0 32 32" fill="none" xmlns="http://www.w3.org/2000/svg">
<g filter="url(#filter0_d_21949_124)">
<rect x="2" y="2" width="24" height="24" rx="5" fill="white"/>
<path fill-rule="evenodd" clip-rule="evenodd" d="M26 7C26 4.23858 23.7614 2 21 2H7C4.23858 2 2 4.23858 2 7V21C2 23.7614 4.23858 26 7 26H21C23.7614 26 26 23.7614 26 21V7ZM4.39993 14C4.39993 8.72 8.71993 4.4 13.9999 4.4C19.2799 4.4 23.5999 8.72 23.5999 14C23.5999 19.28 19.2799 23.6 13.9999 23.6C8.71993 23.6 4.39993 19.28 4.39993 14ZM16.8799 10.16C16.8799 8.57692 15.583 7.28 13.9999 7.28C12.4169 7.28 11.1199 8.57692 11.1199 10.16C11.1199 11.7431 12.4169 13.04 13.9999 13.04C15.583 13.04 16.8799 11.7431 16.8799 10.16ZM8.99188 16.7033C8.20027 17.3868 8.52028 18.5762 9.28858 19.2858C10.5257 20.4285 12.1806 21.1446 13.9999 21.1446C15.8176 21.1446 17.4711 20.4272 18.7078 19.2871C19.4783 18.5769 19.7993 17.3852 19.0055 16.7012C17.7911 15.6546 15.3984 15.0938 13.9999 15.0938C12.6005 15.0938 10.2055 15.6553 8.99188 16.7033Z" fill="#2F80ED"/>
</g>
<defs>
<filter id="filter0_d_21949_124" x="0" y="0" width="32" height="32" filterUnits="userSpaceOnUse" color-interpolation-filters="sRGB">
<feFlood flood-opacity="0" result="BackgroundImageFix"/>
<feColorMatrix in="SourceAlpha" type="matrix" values="0 0 0 0 0 0 0 0 0 0 0 0 0 0 0 0 0 0 127 0" result="hardAlpha"/>
<feOffset dx="2" dy="2"/>
<feGaussianBlur stdDeviation="2"/>
<feColorMatrix type="matrix" values="0 0 0 0 0.184314 0 0 0 0 0.501961 0 0 0 0 0.929412 0 0 0 0.25 0"/>
<feBlend mode="normal" in2="BackgroundImageFix" result="effect1_dropShadow_21949_124"/>
<feBlend mode="normal" in="SourceGraphic" in2="effect1_dropShadow_21949_124" result="shape"/>
</filter>
</defs>
</svg>
