<svg width="32" height="32" viewBox="0 0 32 32" fill="none" xmlns="http://www.w3.org/2000/svg">
<g filter="url(#filter0_d_21949_112)">
<rect x="2" y="4" width="24" height="24" rx="5" fill="#2F80ED"/>
<path d="M15.5613 21.1136C15.7849 20.5128 16.2933 20.0909 16.8846 20.0909C17.476 20.0909 17.9844 20.5128 18.2079 21.1136H20.9231C21.2404 21.1136 21.5 21.4205 21.5 21.7955C21.5 22.1705 21.2404 22.4773 20.9231 22.4773H18.2079C17.9844 23.0781 17.476 23.5 16.8846 23.5C16.2933 23.5 15.7849 23.0781 15.5613 22.4773H7.07692C6.75962 22.4773 6.5 22.1705 6.5 21.7955C6.5 21.4205 6.75962 21.1136 7.07692 21.1136H15.5613ZM9.79207 15.3182C10.0156 14.7173 10.524 14.2955 11.1154 14.2955C11.7067 14.2955 12.2151 14.7173 12.4387 15.3182H20.9231C21.2404 15.3182 21.5 15.625 21.5 16C21.5 16.375 21.2404 16.6818 20.9231 16.6818H12.4387C12.2151 17.2827 11.7067 17.7045 11.1154 17.7045C10.524 17.7045 10.0156 17.2827 9.79207 16.6818H7.07692C6.75962 16.6818 6.5 16.375 6.5 16C6.5 15.625 6.75962 15.3182 7.07692 15.3182H9.79207ZM15.5613 9.52273C15.7849 8.92188 16.2933 8.5 16.8846 8.5C17.476 8.5 17.9844 8.92188 18.2079 9.52273H20.9231C21.2404 9.52273 21.5 9.82955 21.5 10.2045C21.5 10.5795 21.2404 10.8864 20.9231 10.8864H18.2079C17.9844 11.4872 17.476 11.9091 16.8846 11.9091C16.2933 11.9091 15.7849 11.4872 15.5613 10.8864H7.07692C6.75962 10.8864 6.5 10.5795 6.5 10.2045C6.5 9.82955 6.75962 9.52273 7.07692 9.52273H15.5613Z" fill="white"/>
</g>
<defs>
<filter id="filter0_d_21949_112" x="0" y="0" width="32" height="32" filterUnits="userSpaceOnUse" color-interpolation-filters="sRGB">
<feFlood flood-opacity="0" result="BackgroundImageFix"/>
<feColorMatrix in="SourceAlpha" type="matrix" values="0 0 0 0 0 0 0 0 0 0 0 0 0 0 0 0 0 0 127 0" result="hardAlpha"/>
<feOffset dx="2"/>
<feGaussianBlur stdDeviation="2"/>
<feColorMatrix type="matrix" values="0 0 0 0 0.184314 0 0 0 0 0.501961 0 0 0 0 0.929412 0 0 0 1 0"/>
<feBlend mode="normal" in2="BackgroundImageFix" result="effect1_dropShadow_21949_112"/>
<feBlend mode="normal" in="SourceGraphic" in2="effect1_dropShadow_21949_112" result="shape"/>
</filter>
</defs>
</svg>
